<mxfile host="app.diagrams.net" modified="2023-12-02T18:21:53.483Z" agent="Mozilla/5.0 (Windows NT 10.0; Win64; x64) AppleWebKit/537.36 (KHTML, like Gecko) Chrome/119.0.0.0 Safari/537.36" version="22.1.5" etag="kbckgU5HPxE5aQmWiLIq" type="github">
  <diagram name="Page-1" id="X1ogac0V-ha9F4GRenYI">
    <mxGraphModel>
      <root>
        <mxCell id="0" />
        <mxCell id="1" parent="0" />
      </root>
    </mxGraphModel>
  </diagram>
</mxfile>
